<svg id="Layer_1" data-name="Layer 1" xmlns="http://www.w3.org/2000/svg" viewBox="0 0 170 170"><defs><style>.cls-1{fill:none}</style></defs><title>icon-camera</title><path d="M80 45v10h20V45H80zm30-10h10v10h-10zm20 20h20V45h-30v10h10z"/><path d="M150 55v10h-40v10H90V65H30V55h30V45h10V35h40V25H50v10H20v10H10v70h20v10h40v10h20v10h40v-10h10v-10h10v-10h-10V95h-10V85h-10V75h30v40h10V55zm-90 60V85h10V75h10v10H70v30zm70-10v20h-10v10h-20v-10H90v-20h10V95h20v10z"/><path class="cls-1" d="M0 0h170v170H0z"/></svg>