<svg id="Layer_1" data-name="Layer 1" xmlns="http://www.w3.org/2000/svg" viewBox="0 0 170 170"><defs><style>.cls-1{fill:none}</style></defs><title>icon-bomb</title><path d="M95 10h10v10H95zm0 50h10v10H95z"/><path d="M105 40V30H75v10H55v20H45v20H35v10H25v10H15v30h10v10h10v10h10v10h30v-10h10v-10h10v-10h10v-30H95V90H85V80H75V60H65V50h20V40h10v10h30V40h-20zm-30 90v10H65v-10h10v-10h10v10zm40-110v10h10V10h-10v10z"/><path d="M115 70v10h10V60h-10v10zm20-50h10v10h-10zm0 20v10h20V40h-20zm0 20h10v10h-10zm10-50h10v10h-10zm0 60h10v10h-10z"/><path class="cls-1" d="M0 0h170v170H0z"/></svg>