<svg id="Layer_1" data-name="Layer 1" xmlns="http://www.w3.org/2000/svg" viewBox="0 0 170 170"><defs><style>.cls-1{fill:none}</style></defs><title>icon-typography</title><path d="M98.21 40h-30v10h-10v70h10V90h30v30h10V50h-10zm0 20v20h-30V60h10V50h10v10z"/><path d="M128.21 20h-90v10h-10v120h100v-10h10V20zm0 20v90h-80V30h80z"/><path d="M100 40H70v10H60v70h10V90h30v30h10V50h-10zm0 20v20H70V60h10V50h10v10z"/><path d="M130 20H40v10H30v120h100v-10h10V20zm0 20v90H50V30h80z"/><path class="cls-1" d="M0 0h170v170H0z"/></svg>