<svg enable-background="new 0 0 144 144" viewBox="0 0 144 144" xmlns="http://www.w3.org/2000/svg"><g fill="#262626"><path d="m72.2 22.9c13.7 0 26 5.5 35 14.5s14.5 21.3 14.5 35-5.5 26-14.5 35-21.3 14.5-35 14.5-26-5.5-35-14.5-14.5-21.3-14.5-35 5.5-26 14.5-35c8.9-9 21.3-14.5 35-14.5zm32.3 17.2c-8.3-8.3-19.7-13.4-32.3-13.4s-24 5.1-32.3 13.4-13.4 19.7-13.4 32.3 5.1 24 13.4 32.3 19.7 13.4 32.3 13.4 24-5.1 32.3-13.4 13.4-19.7 13.4-32.3c-.1-12.6-5.2-24-13.4-32.3z"/><path clip-rule="evenodd" d="m75.9 62.3v-4.1c0-1.9 1.3-2.4 2.2-2.4h5.7v-8.7h-7.8c-8.7 0-10.6 6.4-10.6 10.6v4.6h-5v6.1 4h5.1v25.3h10.1s0-14 0-25.3h7.4l.3-4 .6-6.1z" fill-rule="evenodd"/></g></svg>