<svg enable-background="new 0 0 144 144" viewBox="0 0 144 144" xmlns="http://www.w3.org/2000/svg"><g fill="#262626"><path d="m72.1 22.9c13.7 0 26.1 5.5 35 14.5 9 9 14.5 21.3 14.5 35s-5.5 26-14.5 35c-8.9 9-21.3 14.5-35 14.5s-26-5.5-35-14.5-14.5-21.3-14.5-35 5.5-26 14.5-35c8.9-9 21.3-14.5 35-14.5zm32.3 17.2c-8.3-8.3-19.7-13.4-32.3-13.4s-24 5.1-32.3 13.4-13.4 19.7-13.4 32.3 5.1 24 13.4 32.3 19.7 13.4 32.3 13.4 24-5.1 32.3-13.4 13.4-19.7 13.4-32.3c-.1-12.6-5.2-24-13.4-32.3z"/><path clip-rule="evenodd" d="m59.4 72.4c0-7 5.7-12.7 12.7-12.7s12.7 5.7 12.7 12.7-5.7 12.7-12.7 12.7-12.7-5.7-12.7-12.7zm25.8-24.8h-26.2c-6.4 0-11.7 5.3-11.7 11.7v26.2c0 6.4 5.3 11.7 11.7 11.7h26.2c6.5 0 11.7-5.3 11.7-11.7v-26.2c0-6.4-5.2-11.7-11.7-11.7zm-26.2 2.9h26.2c4.9 0 8.8 3.9 8.8 8.8v26.2c0 4.9-3.9 8.8-8.8 8.8h-26.2c-4.9 0-8.8-3.9-8.8-8.8v-26.2c0-4.8 4-8.8 8.8-8.8zm28.8 3.7c-1.4 0-2.6 1.2-2.6 2.6s1.2 2.6 2.6 2.6 2.6-1.2 2.6-2.6-1.2-2.6-2.6-2.6zm.3 18.2c0-8.8-7.2-16-16-16s-16 7.2-16 16c0 8.9 7.2 16 16 16s16-7.1 16-16z" fill-rule="evenodd"/></g></svg>