<svg enable-background="new 0 0 144 144" viewBox="0 0 144 144" xmlns="http://www.w3.org/2000/svg"><g fill="#262626"><path d="m71.8 22.9c13.7 0 26 5.6 35 14.5 9 9 14.5 21.4 14.5 35 0 13.7-5.5 26-14.5 35-9 8.9-21.3 14.5-35 14.5s-26-5.6-35-14.5c-9-9-14.5-21.4-14.5-35 0-13.7 5.5-26.1 14.5-35s21.4-14.5 35-14.5zm32.3 17.3c-8.3-8.3-19.7-13.4-32.3-13.4s-24 5.1-32.3 13.4-13.4 19.7-13.4 32.3 5.1 24 13.4 32.3 19.7 13.4 32.3 13.4 24-5.1 32.3-13.4 13.4-19.7 13.4-32.3c0-12.7-5.1-24.1-13.4-32.3z"/><path clip-rule="evenodd" d="m97.1 57c-1.8.8-3.8 1.3-5.9 1.6 2.2-1.3 3.8-3.3 4.6-5.7-2 1.2-4.2 2-6.6 2.5-1.9-2-4.6-3.2-7.6-3.2-5.7 0-10.4 4.6-10.4 10.2 0 .8.1 1.6.3 2.3-8.6-.4-16.3-4.5-21.4-10.7-.9 1.5-1.4 3.3-1.4 5.1 0 3.6 1.9 6.7 4.6 8.5-1.7 0-3.3-.5-4.7-1.3v.1c0 1.3.2 2.5.7 3.7 1.3 3.2 4.1 5.6 7.6 6.3-.9.4-1.8.6-2.7.6-.7 0-1.3-.1-1.9-.2 1.3 4.1 5.2 7 9.7 7.1-3.6 2.7-8 4.4-12.9 4.4-.9 0-1.6-.1-2.5-.1 4.6 2.9 10.1 4.6 15.9 4.6 16.2 0 26.2-11.2 28.8-22.9.5-2.1.7-4.1.7-6.2 0-.4 0-.9 0-1.3 2-1.5 3.8-3.3 5.1-5.4z" fill-rule="evenodd"/></g></svg>